Simulation
nRows=15
nColumns=15
endheader
time  TH_x TH_y TH_z SC_y  SC_z  SC_x  AC_y  AC_z  AC_x  GH_y  GH_z  GH_yy  EL_x  PS_y
0.0  0.000000  0.000000  0.000000  -25.48910579438734  -3.480287568425423  0.40498209064302326  60.76579889279884  5.438158544599545  -10.381494613606963  -9.879561688326998  14.568986874195353  36.74264783644168  24.528137593681794  120.000000
0.027999999999999997  0.000000  0.000000  0.000000  -25.757414827500153  -3.2952237828303454  -0.4017816134773898  60.69238604576467  6.361819590007514  -9.909798705260188  -10.576624518515723  14.812376165625453  37.23102774369439  24.47198462526768  120.000000
0.055999999999999994  0.000000  0.000000  0.000000  -25.951443901470515  -3.155755150325658  -1.1286310720386061  60.717565375908706  7.1539709436034284  -9.404871842263562  -11.220029995792599  15.025027253868942  37.73523497712222  24.313231701020747  120.000000
0.08399999999999999  0.000000  0.000000  0.000000  -26.09999997298407  -3.035271593162644  -1.7992217821413614  60.806582820341646  7.83056941383978  -8.904631628943097  -11.82769180729555  15.220931034313248  38.250400268331234  24.091904238073987  120.000000
0.11199999999999999  0.000000  0.000000  0.000000  -26.234730742465498  -2.9210331222893124  -2.4178550935290786  60.9116459352403  8.412216789166282  -8.421997678598094  -12.41929800352199  15.413340333435174  38.77359176647711  23.83879023254744  120.000000
0.13999999999999999  0.000000  0.000000  0.000000  -26.367019558512165  -2.8089248963169906  -2.9800897879121067  61.015734517767655  8.92053499032047  -7.964180150626156  -13.01325364481151  15.624316181021168  39.29693203353235  23.5711524779159  120.000000
0.16799999999999998  0.000000  0.000000  0.000000  -26.50057258325444  -2.69109963737856  -3.4835023472521907  61.11980283555578  9.370463702995256  -7.534143287622074  -13.623157525996982  15.877869036440478  39.81310396023923  23.30111751014004  120.000000
0.19599999999999998  0.000000  0.000000  0.000000  -26.63819090462904  -2.567904078233725  -3.9274286006353454  61.22558175711864  9.773545755598306  -7.13245483370065  -14.261881143536195  16.197576771745673  40.31298411329992  23.03033346993263  120.000000
0.22399999999999998  0.000000  0.000000  0.000000  -26.782345095944187  -2.43857223137877  -4.314047255537713  61.33923524472387  10.137569850682855  -6.755761808232237  -14.937332571641555  16.60387405548346  40.78730462709974  22.760203175354526  120.000000
0.252  0.000000  0.000000  0.000000  -26.935634532647224  -2.305878801416484  -4.647780316939604  61.46702677368212  10.469770514243889  -6.400280062176291  -15.654531978748828  17.112918213074746  41.22439720410757  22.48941984327879  120.000000
0.27999999999999997  0.000000  0.000000  0.000000  -27.102119851115038  -2.170447083207945  -4.933679369395311  61.615488806263045  10.776962980485468  -6.060934604342808  -16.414158876073756  17.73513108566577  41.61089999180626  22.21866303247846  120.000000
0.30799999999999994  0.000000  0.000000  0.000000  -27.285868791484962  -2.033234027541937  -5.174715203381466  61.78890494690533  11.066395083752072  -5.734638838162738  -17.214165374387388  18.475290312075714  41.930730574771225  21.948086986594426  120.000000
0.33599999999999997  0.000000  0.000000  0.000000  -27.49088255333707  -1.8916600321473376  -5.373708094612738  61.98993408006356  11.347341576224586  -5.41884732611369  -18.04928258592551  19.33213996737199  42.16617696974688  21.67968132699647  120.000000
0.364  0.000000  0.000000  0.000000  -27.7209990608487  -1.7430985244276176  -5.531838564996759  62.21707679954956  11.630096014750219  -5.113226862112302  -18.91267356150904  20.29887685760505  42.29836363997833  21.414530417018668  120.000000
0.39199999999999996  0.000000  0.000000  0.000000  -27.978997149129057  -1.5829490282387448  -5.6491179056297876  62.46704067678138  11.925701371693588  -4.818672562441506  -19.79577607619357  21.364182159159313  42.30875666951523  21.153865767746744  120.000000
